<svg xmlns="http://www.w3.org/2000/svg" width="40" height="40" viewBox="0 0 40 40">
  <g id="Chat-Icon" transform="translate(-490 -403)">
    <g id="Group_332" data-name="Group 332" transform="translate(0 3)">
      <g id="Rectangle_84" data-name="Rectangle 84" transform="translate(490 400)" fill="#fff" stroke="#eaeef8" stroke-width="1">
        <rect width="40" height="40" rx="20" stroke="none"/>
        <rect x="0.5" y="0.5" width="39" height="39" rx="19.5" fill="none"/>
      </g>
    </g>
    <g id="Group_9258" data-name="Group 9258" transform="translate(500 411)">
      <path id="layer2" d="M2.545,20l5.4-2.155a10.118,10.118,0,0,0,2.236.245c4.527,0,8.182-2.918,8.182-6.545S14.709,5,10.182,5,2,7.918,2,11.545a6.018,6.018,0,0,0,2.482,4.691Z" fill="none" stroke="#2c3550" stroke-linecap="round" stroke-linejoin="round" stroke-width="1"/>
      <path id="layer1" d="M18,19h7.636M18,21.727h7.636M18,24.455h4.364" transform="translate(-11.636 -10.182)" fill="none" stroke="#2c3550" stroke-linecap="round" stroke-linejoin="round" stroke-width="1"/>
    </g>
  </g>
</svg>
