<svg xmlns="http://www.w3.org/2000/svg" width="21.455" height="16" viewBox="0 0 21.455 16">
  <g id="ContactIcon" transform="translate(-1.5 -9.5)">
    <path id="layer2" d="M19.045,10v.341a1.7,1.7,0,1,1-3.409,0V10H8.818v.341a1.7,1.7,0,0,1-3.409,0V10H2V25H22.455V10Z" fill="none" stroke="#202020" stroke-miterlimit="10" stroke-width="1"/>
    <path id="layer1" d="M38,26h5.455M38,28.727h5.455M38,31.455h2.727" transform="translate(-23.727 -10.545)" fill="none" stroke="#202020" stroke-miterlimit="10" stroke-width="1"/>
    <circle id="layer1-2" data-name="layer1" cx="2.045" cy="2.045" r="2.045" transform="translate(6.091 14.091)" fill="none" stroke="#202020" stroke-miterlimit="10" stroke-width="1"/>
    <path id="layer1-3" data-name="layer1" d="M13.408,34A3.443,3.443,0,0,0,10,37.511v.58h6.818v-.58A3.443,3.443,0,0,0,13.408,34Z" transform="translate(-5.271 -15.818)" fill="none" stroke="#202020" stroke-miterlimit="10" stroke-width="1"/>
  </g>
</svg>
