<svg xmlns="http://www.w3.org/2000/svg" width="19" height="19" viewBox="0 0 19 19">
  <g id="Noteicon" transform="translate(-1.5 -1.5)">
    <path id="layer2" d="M21.44,15.2V4.4A2.4,2.4,0,0,0,19.04,2H9.2a2.125,2.125,0,0,1,2.04,2.4V17.6a2.4,2.4,0,0,0,2.4,2.4" transform="translate(-5.04)" fill="none" stroke="#202020" stroke-linecap="round" stroke-linejoin="round" stroke-width="1"/>
    <path id="layer2-2" data-name="layer2" d="M17.6,15.2h-9a2.4,2.4,0,0,1,0,4.8h9a2.4,2.4,0,0,0,0-4.8ZM4.16,2A2.213,2.213,0,0,0,2,4.4H6.2" fill="none" stroke="#202020" stroke-linecap="round" stroke-linejoin="round" stroke-width="1"/>
    <path id="layer1" d="M26,14h4.2M26,17h4.2M26,20h4.2" transform="translate(-16.8 -8.4)" fill="none" stroke="#202020" stroke-linecap="round" stroke-linejoin="round" stroke-width="1"/>
  </g>
</svg>
