<svg xmlns="http://www.w3.org/2000/svg" width="14.874" height="17" viewBox="0 0 14.874 17">
  <g id="BellIcon" transform="translate(-1 0.001)">
    <path id="Path_38" data-name="Path 38" d="M8.125,16.125A2.125,2.125,0,0,0,10.25,14H6A2.125,2.125,0,0,0,8.125,16.125Z" transform="translate(0.312 0.874)"/>
    <path id="Path_39" data-name="Path 39" d="M8.437,2.038l-.847.171a4.252,4.252,0,0,0-3.4,4.166A23.056,23.056,0,0,1,3.7,10.35a13.744,13.744,0,0,1-.7,2.4H13.879a13.809,13.809,0,0,1-.7-2.4,23.056,23.056,0,0,1-.488-3.976,4.252,4.252,0,0,0-3.4-4.165l-.847-.173Zm6.608,10.712a2.7,2.7,0,0,0,.829,1.062H1a2.7,2.7,0,0,0,.829-1.062,18.814,18.814,0,0,0,1.3-6.375A5.314,5.314,0,0,1,7.38,1.168a1.062,1.062,0,1,1,2.114,0,5.314,5.314,0,0,1,4.255,5.207A18.814,18.814,0,0,0,15.045,12.749Z" transform="translate(0)" fill-rule="evenodd"/>
  </g>
</svg>
