<svg xmlns="http://www.w3.org/2000/svg" width="19" height="19" viewBox="0 0 19 19">
  <g id="SettingsIcon" transform="translate(-1.5 -1.5)">
    <circle id="layer2" cx="3" cy="3" r="3" transform="translate(8 8)" fill="none" stroke="#202020" stroke-linecap="round" stroke-miterlimit="10" stroke-width="1"/>
    <path id="layer1" d="M19.7,9.5H17.735a6.857,6.857,0,0,0-.912-2.2l1.39-1.39a.3.3,0,0,0,0-.424l-1.7-1.7a.3.3,0,0,0-.424,0L14.7,5.178a6.857,6.857,0,0,0-2.2-.912V2.3a.3.3,0,0,0-.3-.3H9.8a.3.3,0,0,0-.3.3V4.266a6.857,6.857,0,0,0-2.2.912l-1.39-1.39a.3.3,0,0,0-.424,0l-1.7,1.7a.3.3,0,0,0,0,.424L5.178,7.3a6.857,6.857,0,0,0-.912,2.2H2.3a.3.3,0,0,0-.3.3v2.4a.3.3,0,0,0,.3.3H4.266a6.857,6.857,0,0,0,.912,2.2l-1.391,1.39a.3.3,0,0,0,0,.424l1.7,1.7a.3.3,0,0,0,.424,0l1.39-1.39a6.858,6.858,0,0,0,2.2.912V19.7a.3.3,0,0,0,.3.3h2.4a.3.3,0,0,0,.3-.3V17.735a6.858,6.858,0,0,0,2.2-.912l1.39,1.39a.3.3,0,0,0,.424,0l1.7-1.7a.3.3,0,0,0,0-.424l-1.39-1.39a6.857,6.857,0,0,0,.913-2.2H19.7a.3.3,0,0,0,.3-.3V9.8A.3.3,0,0,0,19.7,9.5Z" fill="none" stroke="#202020" stroke-linecap="round" stroke-miterlimit="10" stroke-width="1"/>
  </g>
</svg>
