<?xml version="1.0" encoding="utf-8"?>
<!-- Generator: Adobe Illustrator 23.0.5, SVG Export Plug-In . SVG Version: 6.00 Build 0)  -->
<svg version="1.1" id="Layer_1" xmlns="http://www.w3.org/2000/svg" xmlns:xlink="http://www.w3.org/1999/xlink" x="0px" y="0px"
	 viewBox="0 0 595.28 841.89" style="enable-background:new 0 0 595.28 841.89;" xml:space="preserve">
<style type="text/css">
	.st0{fill:#2C3550;}
	.st1{fill:#6F66FF;}
	.st2{fill:#5BBDF4;}
</style>
<g>
	<g>
		<path class="st0" d="M290.76,427.16c-3.05,0-6.11-0.22-9.18-0.66c-27.6-4.01-49.85-27.08-52.92-54.86
			c-2-18.09,3.53-35.45,15.58-48.9c11.88-13.26,28.89-20.86,46.68-20.86c15.15,0,29.77,5.5,41.18,15.5
			c2.85,2.49,4.46,6.02,4.43,9.68c-0.03,3.72-1.75,7.29-4.71,9.8l-0.15,0.12c-5.03,4.26-12.39,4.22-17.5-0.1
			c-6.51-5.51-14.77-8.54-23.26-8.54c-2.27,0-4.12-1.84-4.12-4.12s1.84-4.12,4.12-4.12c10.43,0,20.58,3.72,28.58,10.49
			c2.03,1.71,4.91,1.76,6.86,0.1l0.15-0.12c1.14-0.97,1.78-2.24,1.79-3.58c0.01-1.28-0.57-2.49-1.63-3.42
			c-9.91-8.68-22.6-13.46-35.75-13.46c-15.45,0-30.23,6.61-40.54,18.12c-10.46,11.68-15.26,26.77-13.52,42.5
			c2.66,24.11,21.97,44.13,45.92,47.61c16.11,2.34,31.67-2.2,43.8-12.77c1-0.87,1.57-2.17,1.56-3.56c-0.01-1.39-0.6-2.67-1.61-3.53
			l-0.14-0.12c-2-1.7-4.76-1.71-6.72-0.03c-5.04,4.3-11.06,7.46-17.4,9.14c-2.19,0.58-4.45-0.73-5.04-2.93
			c-0.58-2.2,0.73-4.45,2.93-5.04c5.16-1.37,10.06-3.94,14.17-7.45c5.03-4.29,12.34-4.28,17.39,0.01l0.13,0.11
			c2.85,2.41,4.51,5.96,4.54,9.75c0.03,3.8-1.57,7.38-4.38,9.84C320.51,421.77,305.87,427.16,290.76,427.16z"/>
	</g>
	<g>
		<path class="st1" d="M275,331.62c-1.59,0-3.11-0.93-3.78-2.48c-0.9-2.09,0.06-4.51,2.14-5.42l0.47-0.2
			c2.1-0.87,4.51,0.12,5.38,2.22s-0.12,4.51-2.22,5.38l-0.36,0.15C276.1,331.51,275.54,331.62,275,331.62z"/>
	</g>
	<g>
		<path class="st2" d="M271.57,403.88c-0.68,0-1.37-0.17-2.01-0.52c-13.78-7.71-22.61-22.1-23.05-37.54
			c-0.35-12.22,4.19-23.74,12.79-32.46c1.6-1.62,4.2-1.64,5.82-0.04c1.62,1.6,1.64,4.2,0.04,5.82c-7,7.1-10.7,16.49-10.42,26.44
			c0.36,12.56,7.58,24.29,18.84,30.59c1.98,1.11,2.69,3.62,1.58,5.6C274.41,403.12,273.01,403.88,271.57,403.88z"/>
	</g>
	<g>
		<path class="st1" d="M290.55,340.71c-12.22,0.18-22.69,10.15-23.42,22.35c-0.73,12.11,7.63,22.43,18.89,24.8v6.73
			c0,1.73,2.02,2.66,3.34,1.54l14.96-11.9c6.29-4.29,10.43-11.52,10.43-19.69C314.75,351.27,303.86,340.51,290.55,340.71z
			 M299.8,377.29l-12.14,9.51v-5.55c0-0.92-0.63-1.67-1.5-1.94c-7.49-2.36-12.58-10.15-10.65-18.74
			c1.29-5.74,5.94-10.41,11.67-11.73c10.33-2.38,19.55,5.44,19.55,15.38C306.73,369.65,303.98,374.44,299.8,377.29z"/>
	</g>
</g>
<g>
	<path class="st0" d="M156.02,519.58c-7.12,0-13.22-2.52-18.29-7.57c-5.05-5.07-7.57-11.17-7.57-18.29c0-7.15,2.52-13.25,7.57-18.29
		c5.07-5.07,11.17-7.61,18.29-7.61c5.87,0,11.13,1.79,15.79,5.36c0.92,0.72,1.46,1.67,1.63,2.83c0.15,1.18-0.14,2.25-0.87,3.19
		c-0.72,0.94-1.67,1.48-2.83,1.63c-1.18,0.14-2.25-0.13-3.19-0.83c-3.09-2.39-6.6-3.59-10.54-3.59c-4.76,0-8.83,1.69-12.21,5.07
		c-3.38,3.38-5.07,7.46-5.07,12.24c0,4.76,1.69,8.83,5.07,12.21s7.45,5.07,12.21,5.07c4.49,0,8.38-1.5,11.66-4.49
		c0.87-0.8,1.9-1.17,3.08-1.12c1.18,0.05,2.17,0.52,2.97,1.41c0.8,0.87,1.17,1.9,1.12,3.08c-0.05,1.18-0.51,2.17-1.38,2.97
		C168.52,517.33,162.7,519.58,156.02,519.58z"/>
	<path class="st0" d="M226.68,519.58c-1.18,0-2.2-0.42-3.04-1.27c-0.85-0.84-1.27-1.86-1.27-3.04v-17.35h-22.31v17.35
		c0,1.18-0.41,2.2-1.23,3.04c-0.85,0.85-1.86,1.27-3.04,1.27s-2.2-0.42-3.04-1.27c-0.85-0.84-1.27-1.86-1.27-3.04v-43.29
		c0-1.18,0.42-2.2,1.27-3.04c0.85-0.85,1.86-1.27,3.04-1.27s2.2,0.42,3.04,1.27c0.82,0.85,1.23,1.86,1.23,3.04v17.35h22.31v-17.35
		c0-1.18,0.42-2.2,1.27-3.04s1.86-1.27,3.04-1.27c1.18,0,2.2,0.42,3.04,1.27c0.84,0.85,1.27,1.86,1.27,3.04v43.29
		c0,1.18-0.42,2.2-1.27,3.04C228.88,519.16,227.86,519.58,226.68,519.58z"/>
	<path class="st0" d="M250.25,519.25c-1.09-0.46-1.86-1.23-2.32-2.32c-0.44-1.09-0.44-2.17,0-3.26l4.6-11.05v-0.04l13.33-32.17
		c0.05-0.12,0.11-0.24,0.18-0.36l0.07-0.18c0.07-0.1,0.12-0.16,0.15-0.18c0-0.02,0.04-0.08,0.11-0.18c0.07-0.07,0.12-0.12,0.15-0.14
		c0-0.02,0.04-0.07,0.11-0.15c0.1-0.1,0.14-0.16,0.14-0.18c0.02-0.02,0.07-0.06,0.15-0.11c0.1-0.1,0.16-0.15,0.18-0.15
		c-0.02,0,0.02-0.04,0.15-0.11c0.1-0.07,0.16-0.12,0.18-0.14l0.14-0.11c0.12-0.07,0.19-0.11,0.22-0.11
		c0.05-0.02,0.13-0.06,0.25-0.11c0.12-0.07,0.16-0.1,0.11-0.07s0,0,0.15-0.07c0.12-0.02,0.21-0.05,0.25-0.07
		c0.02,0,0.11-0.02,0.25-0.07l0.14-0.04c0.05,0,0.13-0.01,0.25-0.04l0.18-0.04c0.02,0,0.1,0,0.22,0c0.1,0,0.16,0,0.18,0
		c0.05,0,0.12,0,0.22,0h0.22l0.22,0.04l0.18,0.04c0.05,0,0.13,0.02,0.25,0.07c0.15,0.02,0.19,0.04,0.15,0.04
		c0.29,0.07,0.56,0.18,0.8,0.33c-0.02-0.02,0.02,0,0.14,0.07c0.12,0.07,0.19,0.12,0.22,0.15l0.15,0.11c0.1,0.07,0.16,0.12,0.18,0.14
		c0.02,0,0.07,0.04,0.15,0.11c0.07,0.07,0.13,0.12,0.18,0.14c0,0.02,0.04,0.07,0.11,0.14c0.1,0.1,0.15,0.16,0.15,0.18l0.11,0.14
		c0.1,0.1,0.14,0.16,0.14,0.18s0.04,0.08,0.11,0.18c0.07,0.1,0.11,0.16,0.11,0.18c0.07,0.12,0.13,0.24,0.18,0.36l13.33,32.17v0.04
		l4.6,11.05c0.44,1.09,0.44,2.17,0,3.26c-0.46,1.09-1.23,1.86-2.32,2.32c-0.53,0.22-1.07,0.33-1.63,0.33
		c-1.91,0-3.22-0.88-3.95-2.64l-3.48-8.4h-20.97l-3.48,8.4c-0.72,1.76-2.04,2.64-3.95,2.64c-0.56,0-0.83,0-0.83,0
		S250.79,519.47,250.25,519.25z M276.77,500.02l-6.99-16.81l-6.95,16.81H276.77z"/>
	<path class="st0" d="M316.57,476.11h-10.76c-1.18,0-2.2-0.42-3.04-1.27c-0.82-0.82-1.23-1.82-1.23-3.01c0-1.18,0.41-2.19,1.23-3.01
		c0.85-0.84,1.86-1.27,3.04-1.27h30.1c1.16,0,2.16,0.42,3.01,1.27c0.82,0.82,1.23,1.82,1.23,3.01c0,1.18-0.41,2.19-1.23,3.01
		c-0.85,0.84-1.85,1.27-3.01,1.27h-10.79v39.19c0,1.18-0.42,2.2-1.27,3.04c-0.82,0.82-1.82,1.23-3.01,1.23
		c-1.18,0-2.19-0.41-3.01-1.23c-0.85-0.84-1.27-1.86-1.27-3.04V476.11z"/>
	<path class="st0" d="M364.09,476.11h-10.76c-1.18,0-2.2-0.42-3.04-1.27c-0.82-0.82-1.23-1.82-1.23-3.01c0-1.18,0.41-2.19,1.23-3.01
		c0.85-0.84,1.86-1.27,3.04-1.27h30.1c1.16,0,2.16,0.42,3.01,1.27c0.82,0.82,1.23,1.82,1.23,3.01c0,1.18-0.41,2.19-1.23,3.01
		c-0.85,0.84-1.85,1.27-3.01,1.27h-10.79v39.19c0,1.18-0.42,2.2-1.27,3.04c-0.82,0.82-1.82,1.23-3.01,1.23
		c-1.18,0-2.19-0.41-3.01-1.23c-0.85-0.84-1.27-1.86-1.27-3.04V476.11z"/>
	<path class="st0" d="M424.29,519.58c-7.17,0-13.29-2.55-18.36-7.64c-5.1-5.07-7.64-11.19-7.64-18.36s2.55-13.31,7.64-18.4
		c5.07-5.07,11.19-7.61,18.36-7.61s13.3,2.54,18.4,7.61c5.07,5.1,7.61,11.23,7.61,18.4s-2.54,13.29-7.61,18.36
		C437.59,517.03,431.46,519.58,424.29,519.58z M424.29,476.11c-4.81,0-8.91,1.7-12.32,5.11c-3.43,3.43-5.14,7.55-5.14,12.35
		s1.71,8.91,5.14,12.32c3.4,3.43,7.51,5.14,12.32,5.14c4.8,0,8.92-1.71,12.35-5.14c3.4-3.41,5.11-7.51,5.11-12.32
		s-1.7-8.92-5.11-12.35C433.21,477.81,429.09,476.11,424.29,476.11z"/>
</g>
</svg>
