<svg xmlns="http://www.w3.org/2000/svg" width="13.001" height="13" viewBox="0 0 13.001 13">
  <g id="Attechment" transform="translate(-2.464 -1.965)">
    <path id="Path_83" data-name="Path 83" d="M5.107,6.724,3.5,8.335a3.523,3.523,0,0,0,4.983,4.983l2.147-2.148A3.523,3.523,0,0,0,9.653,5.5l-.688.688a1.175,1.175,0,0,0-.181.234A2.349,2.349,0,0,1,9.8,10.34L7.65,12.487A2.35,2.35,0,1,1,4.326,9.164l.931-.93a4.718,4.718,0,0,1-.15-1.511Z" transform="translate(0 0.616)"/>
    <path id="Path_84" data-name="Path 84" d="M5.713,7.265l.2-.2a2.337,2.337,0,0,1,1.052-.608,2.337,2.337,0,0,1,.608-1.052l.2-.2a3.528,3.528,0,0,0-1.714.337,3.516,3.516,0,0,0-.338,1.714Z" transform="translate(0.565 0.565)"/>
    <path id="Path_85" data-name="Path 85" d="M6.739,5.144a3.523,3.523,0,0,0,.972,5.669l.91-.911A2.349,2.349,0,0,1,7.569,5.973L9.715,3.826a2.35,2.35,0,1,1,3.323,3.323l-.931.93a4.724,4.724,0,0,1,.15,1.511L13.868,7.98A3.523,3.523,0,1,0,8.886,3Z" transform="translate(0.565)"/>
    <path id="Path_86" data-name="Path 86" d="M10.254,9.754a3.511,3.511,0,0,0,.338-1.714l-.2.2a2.337,2.337,0,0,1-1.052.608A2.337,2.337,0,0,1,8.736,9.9l-.2.2a3.528,3.528,0,0,0,1.714-.337Z" transform="translate(1.059 1.059)"/>
  </g>
</svg>
