<svg id="Barcode-Scan" xmlns="http://www.w3.org/2000/svg" width="16" height="16" viewBox="0 0 16 16">
  <path id="Path_87" data-name="Path 87" d="M1.5,1a.5.5,0,0,0-.5.5v3a.5.5,0,1,1-1,0v-3A1.5,1.5,0,0,1,1.5,0h3a.5.5,0,0,1,0,1ZM11,.5a.5.5,0,0,1,.5-.5h3A1.5,1.5,0,0,1,16,1.5v3a.5.5,0,0,1-1,0v-3a.5.5,0,0,0-.5-.5h-3A.5.5,0,0,1,11,.5ZM.5,11a.5.5,0,0,1,.5.5v3a.5.5,0,0,0,.5.5h3a.5.5,0,0,1,0,1h-3A1.5,1.5,0,0,1,0,14.5v-3A.5.5,0,0,1,.5,11Zm15,0a.5.5,0,0,1,.5.5v3A1.5,1.5,0,0,1,14.5,16h-3a.5.5,0,0,1,0-1h3a.5.5,0,0,0,.5-.5v-3A.5.5,0,0,1,15.5,11Z" fill-rule="evenodd"/>
  <path id="Path_88" data-name="Path 88" d="M3,4.5a.5.5,0,0,1,1,0v7a.5.5,0,0,1-1,0Zm2,0a.5.5,0,0,1,1,0v7a.5.5,0,0,1-1,0Zm2,0a.5.5,0,0,1,1,0v7a.5.5,0,0,1-1,0Zm2,0A.5.5,0,0,1,9.5,4h1a.5.5,0,0,1,.5.5v7a.5.5,0,0,1-.5.5h-1a.5.5,0,0,1-.5-.5Zm3,0a.5.5,0,0,1,1,0v7a.5.5,0,0,1-1,0Z"/>
</svg>
