<svg xmlns="http://www.w3.org/2000/svg" width="18" height="18" viewBox="0 0 18 18">
  <path id="Brightness" d="M9,12.375A3.375,3.375,0,1,0,5.625,9,3.375,3.375,0,0,0,9,12.375ZM9,13.5A4.5,4.5,0,1,0,4.5,9,4.5,4.5,0,0,0,9,13.5ZM9,0a.563.563,0,0,1,.563.563v2.25a.563.563,0,0,1-1.125,0V.563A.563.563,0,0,1,9,0ZM9,14.625a.563.563,0,0,1,.563.563v2.25a.563.563,0,0,1-1.125,0v-2.25A.563.563,0,0,1,9,14.625ZM18,9a.562.562,0,0,1-.562.563h-2.25a.563.563,0,0,1,0-1.125h2.25A.562.562,0,0,1,18,9ZM3.375,9a.563.563,0,0,1-.562.563H.563a.563.563,0,0,1,0-1.125h2.25A.563.563,0,0,1,3.375,9ZM15.364,2.636a.563.563,0,0,1,0,.8L13.773,5.023a.563.563,0,0,1-.8-.8l1.591-1.591a.563.563,0,0,1,.8,0ZM5.022,12.978a.562.562,0,0,1,0,.8L3.431,15.364a.562.562,0,1,1-.8-.8l1.591-1.591A.563.563,0,0,1,5.022,12.978Zm10.342,2.386a.563.563,0,0,1-.8,0l-1.591-1.591a.562.562,0,1,1,.8-.8l1.591,1.591a.563.563,0,0,1,0,.8ZM5.022,5.023a.562.562,0,0,1-.8,0L2.636,3.431a.562.562,0,1,1,.8-.8L5.022,4.227a.562.562,0,0,1,0,.8Z" fill-rule="evenodd"/>
</svg>
