<svg xmlns="http://www.w3.org/2000/svg" width="20.312" height="20.313" viewBox="0 0 20.312 20.313">
  <path id="Call" d="M16.982,14.341a1.546,1.546,0,0,0-2.094.419c-.773.934-1.708,2.481-5.219-1.031S7.67,9.251,8.6,8.478a1.546,1.546,0,0,0,.419-2.094L6.833,3.033c-.29-.419-.677-1.1-1.579-.967A4.4,4.4,0,0,0,2,6.416c0,2.9,2.288,6.444,5.413,9.569s6.669,5.38,9.537,5.38A4.671,4.671,0,0,0,21.3,18.143c.1-.644-.548-1.289-.967-1.579Z" transform="translate(-1.5 -1.552)" fill="none" stroke="#202020" stroke-width="1"/>
</svg>
