<svg xmlns="http://www.w3.org/2000/svg" width="16" height="14.613" viewBox="0 0 16 14.613">
  <path id="chat" d="M10,4.6C5.573,4.6,2,7.453,2,11a5.885,5.885,0,0,0,2.427,4.587L2.72,19.213l5.093-2.027a9.867,9.867,0,0,0,2.187.24c4.427,0,8-2.853,8-6.4S14.427,4.6,10,4.6Zm.533,9.6H6.267a.533.533,0,1,1,0-1.067h4.267a.533.533,0,0,1,0,1.067Zm3.2-2.667H6.267a.533.533,0,1,1,0-1.067h7.467a.533.533,0,1,1,0,1.067Zm0-2.667H6.267a.533.533,0,0,1,0-1.067h7.467a.533.533,0,1,1,0,1.067Z" transform="translate(-2 -4.6)" fill="#fff"/>
</svg>
