<svg xmlns="http://www.w3.org/2000/svg" width="10.734" height="18.647" viewBox="0 0 10.734 18.647">
  <g id="close" transform="translate(5.367) rotate(45)">
    <path id="Path_45" data-name="Path 45" d="M12.093,5.5a1,1,0,0,1,1,1v5.594a1,1,0,0,1-1,1H6.5a1,1,0,1,1,0-2h4.595V6.5A1,1,0,0,1,12.093,5.5Z" transform="translate(-5.5 -5.5)" fill="#2c3550" fill-rule="evenodd"/>
    <path id="Path_46" data-name="Path 46" d="M7.5,8.5a1,1,0,0,1,1-1h5.594a1,1,0,0,1,0,2H9.5v4.595a1,1,0,0,1-2,0Z" transform="translate(-1.906 -1.906)" fill="#2c3550" fill-rule="evenodd"/>
  </g>
</svg>
