<svg xmlns="http://www.w3.org/2000/svg" width="14.114" height="24.513" viewBox="0 0 14.114 24.513">
  <g id="Close" transform="translate(7.057) rotate(45)">
    <path id="Path_45" data-name="Path 45" d="M14.167,5.5A1.313,1.313,0,0,1,15.48,6.813v7.354a1.313,1.313,0,0,1-1.313,1.313H6.813a1.313,1.313,0,0,1,0-2.626h6.04V6.813A1.313,1.313,0,0,1,14.167,5.5Z" transform="translate(-5.5 -5.5)" fill="#6f66ff" fill-rule="evenodd"/>
    <path id="Path_46" data-name="Path 46" d="M7.5,8.813A1.313,1.313,0,0,1,8.813,7.5h7.354a1.313,1.313,0,0,1,0,2.626h-6.04v6.04a1.313,1.313,0,0,1-2.626,0Z" transform="translate(-0.146 -0.146)" fill="#6f66ff" fill-rule="evenodd"/>
  </g>
</svg>
