<svg xmlns="http://www.w3.org/2000/svg" width="24.098" height="24.129" viewBox="0 0 24.098 24.129">
  <g id="Contact-Info" transform="translate(-1.402 -1.407)">
    <path id="layer2" d="M20.285,20.091c-.268-.843-1.073-2.185-3.488-2.683-3.105-.613-3.3-1.38-3.3-1.993v-.767a5.4,5.4,0,0,0,1.533-2.683c.958,0,1.533-1.15,1.533-2.3,0-.307,0-1.533-.767-1.533,1.917-5.52-3.68-7.667-7.667-4.983-1.687,0-2.147,2.53-1.533,4.983-.767,0-.767,1.227-.767,1.533,0,1.15.575,2.3,1.533,2.3A5.443,5.443,0,0,0,8.9,14.648v.767c0,.613-.192,1.38-3.3,1.993A4.471,4.471,0,0,0,2,20.781H16.145" transform="translate(0 0)" fill="none" stroke="#202020" stroke-miterlimit="10" stroke-width="1"/>
    <path id="layer1" d="M41.506,31.985c-.537-.077-.767.345-.958.575l-1.3,1.993a.92.92,0,0,0,.23,1.265c.537.46,1.112.843-1,2.952s-2.3,1.342-2.76.805a.92.92,0,0,0-1.265-.23l-1.993,1.3c-.268.192-.652.422-.575.958a2.76,2.76,0,0,0,2.607,1.917c1.725,0,3.833-1.342,5.673-3.22s3.258-3.987,3.258-5.712a2.76,2.76,0,0,0-1.917-2.607Z" transform="translate(-18.422 -18.488)" fill="none" stroke="#202020" stroke-miterlimit="10" stroke-width="1"/>
  </g>
</svg>
