<svg xmlns="http://www.w3.org/2000/svg" width="18" height="13.5" viewBox="0 0 18 13.5">
  <path id="Contacts" d="M12.374,15.5A1.1,1.1,0,0,0,13.5,14.375c0-1.125-1.125-4.5-6.75-4.5S0,13.25,0,14.375A1.1,1.1,0,0,0,1.125,15.5ZM1.131,14.438v0Zm.019-.063h11.2l.016,0,.009,0a3.006,3.006,0,0,0-.936-1.872C10.7,11.765,9.325,11,6.75,11s-3.955.765-4.689,1.5a3.012,3.012,0,0,0-.936,1.872Zm11.22.063v0ZM6.75,7.625A2.25,2.25,0,1,0,4.5,5.375,2.25,2.25,0,0,0,6.75,7.625Zm3.375-2.25A3.375,3.375,0,1,1,6.75,2,3.375,3.375,0,0,1,10.124,5.375Zm7.71.164a.563.563,0,0,1,0,.8L14.46,9.711a.562.562,0,0,1-.8,0L11.976,8.023a.563.563,0,0,1,.8-.8l1.289,1.29,2.977-2.978a.562.562,0,0,1,.8,0Z" transform="translate(0 -2)" fill-rule="evenodd"/>
</svg>
