<svg xmlns="http://www.w3.org/2000/svg" width="12" height="14" viewBox="0 0 12 14">
  <g id="Document" transform="translate(-2 -1)">
    <path id="Path_30" data-name="Path 30" d="M4,1h8a2,2,0,0,1,2,2V13a2,2,0,0,1-2,2H4a2,2,0,0,1-2-2V3A2,2,0,0,1,4,1ZM4,2A1,1,0,0,0,3,3V13a1,1,0,0,0,1,1h8a1,1,0,0,0,1-1V3a1,1,0,0,0-1-1Z" fill-rule="evenodd"/>
    <path id="Path_31" data-name="Path 31" d="M4.5,11.5A.5.5,0,0,1,5,11H8a.5.5,0,0,1,0,1H5A.5.5,0,0,1,4.5,11.5Zm0-2A.5.5,0,0,1,5,9h6a.5.5,0,0,1,0,1H5A.5.5,0,0,1,4.5,9.5ZM6.139,5.792l1.33.886L9.323,4.823a.25.25,0,0,1,.289-.047L11.5,5.75V7.5A.5.5,0,0,1,11,8H5a.5.5,0,0,1-.5-.5V7A12.371,12.371,0,0,1,6.139,5.792ZM6.25,5a.75.75,0,1,0-.75-.75A.75.75,0,0,0,6.25,5Z" fill-rule="evenodd"/>
  </g>
</svg>
