<svg xmlns="http://www.w3.org/2000/svg" width="32.224" height="31.864" viewBox="0 0 32.224 31.864">
  <g id="Empty-Room" transform="translate(-17.309 -18)">
    <path id="Shape" d="M27.576,14.225h-.69V8.851h2.235a.879.879,0,0,0,.854-1.086L28.632,2.21a.879.879,0,0,0-.854-.672h-3.54a.879.879,0,0,0-.854.672L22.039,7.766a.879.879,0,0,0,.854,1.086h2.235V10.96a2.621,2.621,0,0,0-1.379-.39H6.25a2.64,2.64,0,0,0-2.637,2.637v1.019H2.424A2.427,2.427,0,0,0,0,16.649v7.935a2.427,2.427,0,0,0,2.424,2.424H27.576A2.427,2.427,0,0,0,30,24.584V16.649A2.427,2.427,0,0,0,27.576,14.225ZM2.424,25.25a.667.667,0,0,1-.666-.666V16.649a.667.667,0,0,1,.666-.666H5.561a.667.667,0,0,1,.666.666v7.935a.667.667,0,0,1-.666.666ZM6.25,12.328h17.5a.88.88,0,0,1,.879.879v1.019h-.19a2.427,2.427,0,0,0-2.424,2.424v3.089H7.985V16.649a2.427,2.427,0,0,0-2.424-2.424h-.19V13.206a.88.88,0,0,1,.879-.879ZM7.985,24.584V21.5h14.03v3.089a2.417,2.417,0,0,0,.094.666H7.891A2.417,2.417,0,0,0,7.985,24.584Zm15.787,0V16.649a.667.667,0,0,1,.666-.666h3.138a.667.667,0,0,1,.666.666v7.935a.667.667,0,0,1-.666.666H24.439A.667.667,0,0,1,23.773,24.584ZM27.085,3.3,28,7.093H24.01l.919-3.8Z" transform="translate(18 18)" fill="#bac5e9"/>
    <path id="Shape-2" data-name="Shape" d="M2,7.695H16.872a.879.879,0,0,0,.879-.879V.879A.879.879,0,0,0,16.872,0H2a.879.879,0,0,0-.879.879V6.816A.879.879,0,0,0,2,7.695Zm.879-5.937H15.993V5.937H2.876Z" transform="translate(18 18)" fill="#bac5e9"/>
    <line id="Path-8" x2="16.751" transform="translate(18.209 48.964)" fill="none" stroke="#bac5e9" stroke-linecap="round" stroke-width="1.8"/>
    <line id="Path-8-Copy-2" x2="9.391" transform="translate(39.242 48.964)" fill="none" stroke="#bac5e9" stroke-linecap="round" stroke-width="1.8"/>
  </g>
</svg>
