<svg xmlns="http://www.w3.org/2000/svg" width="51.302" height="53.751" viewBox="0 0 51.302 53.751">
  <g id="Empty-Chat" transform="translate(-11.661 0)">
    <path id="Path_307" data-name="Path 307" d="M40.594,213.218a4.332,4.332,0,0,0-4.784-6.34l-2.167-7.769a3.858,3.858,0,0,0-4.748-2.677l-3.035.846a.787.787,0,1,0,.423,1.517l3.035-.846a2.282,2.282,0,0,1,2.808,1.583l2.551,9.148-7.391,2.061a4.881,4.881,0,0,1-4.306-.83,5.33,5.33,0,0,0-4.692-.949l-2.82.787-.918-3.292a2.282,2.282,0,0,1,1.583-2.808l.625-.174a5.387,5.387,0,0,1,2.231-.1.787.787,0,0,0,.92-.982,1.753,1.753,0,0,1,1.216-2.157l1.76-.491a.787.787,0,1,0-.423-1.517l-1.76.491a3.332,3.332,0,0,0-2.427,3.012,6.712,6.712,0,0,0-1.94.23l-.625.174a3.858,3.858,0,0,0-2.677,4.747l1.643,5.892A4.33,4.33,0,0,0,17,221.11l.083.3a10.97,10.97,0,1,0,21.134-5.894l-.083-.3A4.3,4.3,0,0,0,40.594,213.218ZM13.337,217.64a2.761,2.761,0,0,1,1.763-3.35l1.479,5.3A2.761,2.761,0,0,1,13.337,217.64Zm16.84,9.872A9.406,9.406,0,0,1,18.6,220.985l-2.711-9.719,2.82-.787a3.769,3.769,0,0,1,3.314.684,6.448,6.448,0,0,0,3.924,1.337,6.544,6.544,0,0,0,1.76-.243L35.1,210.2l1.6,5.741A9.406,9.406,0,0,1,30.177,227.511Zm9.046-15.067a2.738,2.738,0,0,1-1.509,1.254l-1.479-5.3a2.758,2.758,0,0,1,2.988,4.049Z" transform="translate(0 -175.683)" fill="#bac5e9"/>
    <path id="Path_308" data-name="Path 308" d="M145.647,397.207l-7.011,1.955a.787.787,0,0,0-.547.97,4.427,4.427,0,0,0,8.528-2.379A.787.787,0,0,0,145.647,397.207Zm-.81,3.137a2.852,2.852,0,0,1-4.913.094l5.282-1.473A2.837,2.837,0,0,1,144.837,400.344Z" transform="translate(-113.129 -355.48)" fill="#bac5e9"/>
    <path id="Path_309" data-name="Path 309" d="M106.631,376.168a2.238,2.238,0,0,0-4.312,1.2.787.787,0,0,0,1.517-.423.663.663,0,1,1,1.278-.356.787.787,0,0,0,1.517-.423Z" transform="translate(-81.067 -335.212)" fill="#bac5e9"/>
    <path id="Path_310" data-name="Path 310" d="M191.729,350.111a2.241,2.241,0,0,0-1.555,2.757.787.787,0,1,0,1.517-.423.663.663,0,1,1,1.278-.357.787.787,0,1,0,1.517-.423,2.241,2.241,0,0,0-2.757-1.554Z" transform="translate(-159.698 -313.281)" fill="#bac5e9"/>
    <path id="Path_311" data-name="Path 311" d="M251.834,49.342c-.061-.017-.123-.033-.184-.047a10.724,10.724,0,0,0-19.922-5.658c-.061-.02-.123-.04-.186-.057a4.246,4.246,0,0,0-2.487,8.118l-.077.272A10.724,10.724,0,0,0,241.75,65.335a.787.787,0,0,0-.362-1.533,9.148,9.148,0,0,1-10.9-11.4l.774-2.724a.787.787,0,1,0-1.515-.43l-.266.936a2.671,2.671,0,0,1,1.526-5.112c-.1.248-.2.5-.281.757a.787.787,0,1,0,1.5.487,9.142,9.142,0,0,1,2.159-3.575,10.75,10.75,0,0,0,9.688,6.1,10.657,10.657,0,0,0,5.206-1.363c.193-.108.382-.223.569-.343a9.1,9.1,0,0,1-.126,4.514L248.09,57.4a9.146,9.146,0,0,1-3.742,5.122.787.787,0,1,0,.87,1.313,10.722,10.722,0,0,0,4.386-6l.078-.273a4.245,4.245,0,0,0,2.151-8.212Zm-3.32-3.242a9.082,9.082,0,0,1-6.953.811,9.191,9.191,0,0,1-5.926-5.238,9.162,9.162,0,0,1,13.279,3.02,9.332,9.332,0,0,1,.431.883A9.226,9.226,0,0,1,248.514,46.1Zm4.73,8.057a2.671,2.671,0,0,1-3.13,1.882l1.125-3.962a10.892,10.892,0,0,0,.266-1.188A2.674,2.674,0,0,1,253.243,54.156Z" transform="translate(-191.957 -34.388)" fill="#bac5e9"/>
    <path id="Path_312" data-name="Path 312" d="M302.862,192.821a4.336,4.336,0,0,0,5.358-2.988.787.787,0,0,0-.542-.973l-6.831-1.94a.788.788,0,0,0-.973.542,4.338,4.338,0,0,0,2.988,5.358Zm3.518-2.692a2.765,2.765,0,0,1-5.1-1.448Z" transform="translate(-257.806 -167.27)" fill="#bac5e9"/>
    <path id="Path_313" data-name="Path 313" d="M288.633,140.656a.786.786,0,0,0,.972-.542,2.2,2.2,0,1,0-4.238-1.2.787.787,0,0,0,1.515.43.628.628,0,0,1,1.208.343A.787.787,0,0,0,288.633,140.656Z" transform="translate(-244.945 -122.893)" fill="#bac5e9"/>
    <path id="Path_314" data-name="Path 314" d="M374.232,164.967a.787.787,0,0,0,.973-.542,2.2,2.2,0,1,0-4.238-1.2.787.787,0,1,0,1.515.43.628.628,0,0,1,1.208.343A.787.787,0,0,0,374.232,164.967Z" transform="translate(-321.558 -144.652)" fill="#bac5e9"/>
    <path id="Path_315" data-name="Path 315" d="M330.884,376.011l-6.11-.893a1.684,1.684,0,0,0-1.856,1.2l-.357,1.244a1.685,1.685,0,0,0,.938,2l5.653,2.485a1.679,1.679,0,0,0,2.289-1.073l.814-2.836a1.679,1.679,0,0,0-1.371-2.124Zm-.143,1.69-.814,2.836a.1.1,0,0,1-.141.066l-5.653-2.485a.1.1,0,0,1-.058-.124l.357-1.244a.1.1,0,0,1,.1-.075h.015l6.11.893a.1.1,0,0,1,.085.131Z" transform="translate(-278.203 -335.72)" fill="#bac5e9"/>
    <path id="Path_316" data-name="Path 316" d="M316.345,306.33l.09,1.291A1.684,1.684,0,0,0,318,309.179l6.162.4c.037,0,.073,0,.109,0a1.679,1.679,0,0,0,1.674-1.795l-.2-2.944a1.679,1.679,0,0,0-2.014-1.527l-6.047,1.25A1.684,1.684,0,0,0,316.345,306.33Zm1.653-.218,6.047-1.25.023,0a.1.1,0,0,1,.1.1l.2,2.944a.1.1,0,0,1-.11.111l-6.162-.4a.1.1,0,0,1-.1-.1h0l-.09-1.291A.1.1,0,0,1,318,306.111Z" transform="translate(-272.693 -271.444)" fill="#bac5e9"/>
    <path id="Path_317" data-name="Path 317" d="M294.026,426.612l-5.436-2.929a1.684,1.684,0,0,0-2.154.49l-.761,1.047h0a1.685,1.685,0,0,0,.2,2.2l4.462,4.269a1.679,1.679,0,0,0,1.16.466c.05,0,.1,0,.15-.007a1.678,1.678,0,0,0,1.208-.685l1.735-2.387a1.679,1.679,0,0,0-.561-2.465Zm-.712,1.539-1.735,2.386a.1.1,0,0,1-.156.014l-4.462-4.269a.1.1,0,0,1-.012-.136l.761-1.047a.1.1,0,0,1,.133-.03L293.279,428a.1.1,0,0,1,.035.152Z" transform="translate(-244.961 -379.025)" fill="#bac5e9"/>
    <path id="Path_318" data-name="Path 318" d="M91.877,50.855l5.632,2.533a1.665,1.665,0,0,0,.684.147,1.685,1.685,0,0,0,1.429-.79l.684-1.1h0a1.685,1.685,0,0,0-.354-2.18L95.2,45.527a1.679,1.679,0,0,0-2.5.405l-1.56,2.5a1.678,1.678,0,0,0,.736,2.419Zm.6-1.586,1.56-2.5a.1.1,0,0,1,.071-.048h.018a.1.1,0,0,1,.065.024l4.756,3.939a.1.1,0,0,1,.022.135l-.685,1.1a.1.1,0,0,1-.131.04l-5.632-2.533a.1.1,0,0,1-.045-.149Z" transform="translate(-70.909 -40.403)" fill="#bac5e9"/>
    <path id="Path_319" data-name="Path 319" d="M85.6,128.106l6.158.454q.062,0,.123,0a1.685,1.685,0,0,0,1.643-1.332l.268-1.266a1.684,1.684,0,0,0-1.078-1.928L86.9,121.964a1.678,1.678,0,0,0-2.206,1.234l-.61,2.887a1.679,1.679,0,0,0,1.519,2.021Zm.022-1.7.61-2.887a.1.1,0,0,1,.051-.069.1.1,0,0,1,.05-.014.108.108,0,0,1,.036.006l5.816,2.075a.1.1,0,0,1,.067.119l-.267,1.266a.1.1,0,0,1-.109.082l-6.158-.454a.1.1,0,0,1-.094-.125Z" transform="translate(-64.786 -109.073)" fill="#bac5e9"/>
    <path id="Path_320" data-name="Path 320" d="M156.085,9.007a1.684,1.684,0,0,0,2.206.118l1.019-.8h0a1.684,1.684,0,0,0,.413-2.17L156.6.83a1.678,1.678,0,0,0-2.483-.473L151.8,2.176A1.679,1.679,0,0,0,151.66,4.7Zm-3.319-5.591,2.323-1.82a.1.1,0,0,1,.062-.022l.021,0a.1.1,0,0,1,.07.049l3.122,5.328a.1.1,0,0,1-.026.134l-1.019.8a.1.1,0,0,1-.136-.007l-4.426-4.306a.1.1,0,0,1,.008-.156Z" transform="translate(-124.847 0)" fill="#bac5e9"/>
  </g>
</svg>
