<svg xmlns="http://www.w3.org/2000/svg" width="35.842" height="30.509" viewBox="0 0 35.842 30.509">
  <g id="Empty-Chat" transform="translate(-18.03 -17)">
    <g id="chat-_1_" data-name="chat-(1)" transform="translate(18 17)">
      <path id="Shape" d="M15.079,0c-.008.008-.025.008-.049.008A14.967,14.967,0,0,0,3.291,24.3L1.109,29.371a.814.814,0,0,0,.425,1.071A.831.831,0,0,0,2,30.5l8-1.406a14.422,14.422,0,0,0,4.986.866A14.98,14.98,0,0,0,15.079,0ZM15,28.332a13.122,13.122,0,0,1-4.619-.842.784.784,0,0,0-.433-.041L3.21,28.627l1.782-4.144a.822.822,0,0,0-.131-.858,13.068,13.068,0,0,1-2.272-3.777A13.346,13.346,0,1,1,28.362,14.91v.049A13.382,13.382,0,0,1,15,28.332Z" fill="#bac5e9"/>
      <path id="Path" d="M14.36,11.992H9.945a.817.817,0,1,0,0,1.635H14.36a.817.817,0,1,0,0-1.635Z" fill="#bac5e9"/>
      <path id="Path-2" data-name="Path" d="M20.082,16.079H9.945a.817.817,0,1,0,0,1.635H20.082a.817.817,0,0,0,0-1.635Z" fill="#bac5e9"/>
    </g>
    <path id="Path-3" data-name="Path" d="M53.055-17.992H48.64a.82.82,0,0,1-.817-.817.82.82,0,0,1,.817-.817h4.414a.82.82,0,0,1,.817.817A.82.82,0,0,1,53.055-17.992Z" transform="translate(101.695) rotate(180)" fill="#bac5e9"/>
    <path id="Path-4" data-name="Path" d="M51.055-22.079H40.918A.82.82,0,0,1,40.1-22.9a.82.82,0,0,1,.817-.817H51.055a.82.82,0,0,1,.817.817A.82.82,0,0,1,51.055-22.079Z" transform="translate(91.973) rotate(180)" fill="#bac5e9"/>
  </g>
</svg>
