<svg xmlns="http://www.w3.org/2000/svg" width="29.999" height="30" viewBox="0 0 29.999 30">
  <g id="Empty-call" transform="translate(0)">
    <path id="Shape" d="M3.861,22.351l3.788,3.788A13.241,13.241,0,0,0,24.69,27.548,2.644,2.644,0,0,0,25,23.539l-3.616-3.616a2.64,2.64,0,0,0-3.729,0l-1.243,1.243a2.635,2.635,0,0,1-3.729,0L8.833,17.321a2.635,2.635,0,0,1,0-3.729h0l1.243-1.243a2.64,2.64,0,0,0,0-3.729L6.46,5a2.644,2.644,0,0,0-4.009.305A13.27,13.27,0,0,0,3.861,22.351Zm16.276-1.184,3.616,3.616a.887.887,0,0,1-.085,1.336q-.314.225-.64.425l-4.755-4.755.622-.622A.88.88,0,0,1,20.137,21.167Zm-8.7,1.243a4.394,4.394,0,0,0,5.531.56l4.411,4.411A11.6,11.6,0,0,1,8.891,24.9L5.1,21.108A11.6,11.6,0,0,1,2.619,8.622L7.03,13.032a4.394,4.394,0,0,0,.56,5.531ZM5.217,6.247,8.833,9.863a.878.878,0,0,1,0,1.243l-.622.622L3.456,6.972q.2-.325.425-.64A.887.887,0,0,1,5.217,6.247Z" fill="#bac5e9"/>
    <path id="Path" d="M17.695,1.758A10.559,10.559,0,0,1,28.242,12.3.879.879,0,0,0,30,12.3,12.319,12.319,0,0,0,17.695,0a.879.879,0,0,0,0,1.758Z" fill="#bac5e9"/>
    <path id="Path-2" data-name="Path" d="M17.695,8.789A3.52,3.52,0,0,1,21.21,12.3a.879.879,0,0,0,1.758,0,5.279,5.279,0,0,0-5.273-5.273.879.879,0,0,0,0,1.758Z" fill="#bac5e9"/>
    <path id="Path-3" data-name="Path" d="M17.695,5.273A7.039,7.039,0,0,1,24.726,12.3a.879.879,0,0,0,1.758,0,8.8,8.8,0,0,0-8.789-8.789.879.879,0,0,0,0,1.758Z" fill="#bac5e9"/>
  </g>
</svg>
