<svg xmlns="http://www.w3.org/2000/svg" width="30" height="29.996" viewBox="0 0 30 29.996">
  <path id="Empty-Group" d="M17.371,19.693a11.125,11.125,0,0,0-2.337-1.247,5.964,5.964,0,0,0,1.94-3.934A8.82,8.82,0,0,1,28.158,13.6,1.172,1.172,0,1,0,29.5,11.674a11.138,11.138,0,0,0-2.338-1.247,5.976,5.976,0,1,0-8.046-.013q-.245.094-.488.2A11.128,11.128,0,0,0,16.564,11.8a5.975,5.975,0,1,0-9.587,6.623,11.269,11.269,0,0,0-6.8,7.011,3.516,3.516,0,0,0,3.346,4.592H13.713a1.172,1.172,0,0,0,0-2.344H3.519A1.172,1.172,0,0,1,2.4,26.151a9.041,9.041,0,0,1,8.589-6.115,8.764,8.764,0,0,1,5.038,1.58,1.172,1.172,0,1,0,1.341-1.922Zm5.774-17.32a3.632,3.632,0,1,1-3.632,3.632A3.636,3.636,0,0,1,23.145,2.373ZM11.018,10.392a3.632,3.632,0,1,1-3.632,3.632,3.637,3.637,0,0,1,3.632-3.632ZM30,24.46a1.172,1.172,0,0,1-1.172,1.172H25.606v3.222a1.172,1.172,0,1,1-2.344,0V25.632H20.04a1.172,1.172,0,0,1,0-2.344h3.222V20.066a1.172,1.172,0,0,1,2.344,0v3.222h3.222A1.172,1.172,0,0,1,30,24.46Z" transform="translate(0 -0.029)" fill="#bac5e9"/>
</svg>
