<svg xmlns="http://www.w3.org/2000/svg" width="37.46" height="31" viewBox="0 0 37.46 31">
  <g id="Empty-Meeting" transform="translate(-13.867 -18)">
    <g id="meeting-room" transform="translate(18 18)">
      <path id="Shape" d="M26.484,7.031a3.516,3.516,0,1,0-3.516-3.516A3.519,3.519,0,0,0,26.484,7.031Zm0-4.687a1.172,1.172,0,1,1-1.172,1.172A1.173,1.173,0,0,1,26.484,2.344ZM3.516,7.031A3.516,3.516,0,1,0,0,3.516,3.519,3.519,0,0,0,3.516,7.031Zm0-4.687A1.172,1.172,0,1,1,2.344,3.516,1.173,1.173,0,0,1,3.516,2.344ZM26.5,8.145h-.017c-2.426,0-3.345,1.766-3.925,3.495-.2.588-.625,1.873-.906,2.716H20.273v-2.7a3.519,3.519,0,0,0-3.516-3.516H13.242A3.519,3.519,0,0,0,9.727,11.66v2.7H8.345c-.281-.843-.709-2.128-.906-2.716-.58-1.729-1.5-3.495-3.925-3.495H3.5A3.519,3.519,0,0,0,0,11.66v6.387a3.521,3.521,0,0,0,2.344,3.314v.026c.03,0,.06,0,.089,0a3.49,3.49,0,0,0,.4.1,1.172,1.172,0,0,1,.682,1.063V30H5.859V22.559a3.5,3.5,0,0,0-.145-1H7.09a1.173,1.173,0,0,1,1.172,1.172V30h2.344V22.734A3.519,3.519,0,0,0,7.09,19.219H3.516c-.03,0-.06,0-.089,0a3.49,3.49,0,0,0-.4-.1,1.172,1.172,0,0,1-.682-1.063V11.66a1.171,1.171,0,0,1,1.162-1.172c.53,0,1.075,0,1.712,1.9.3.908,1.162,3.487,1.171,3.513l.267.8H23.345l.267-.8c.009-.026.867-2.605,1.171-3.513.637-1.9,1.182-1.9,1.712-1.9a1.171,1.171,0,0,1,1.162,1.172v6.387a1.172,1.172,0,0,1-.682,1.063,3.49,3.49,0,0,0-.4.1c-.03,0-.059,0-.089,0H22.969a3.519,3.519,0,0,0-3.516,3.516V30H21.8V22.734a1.173,1.173,0,0,1,1.172-1.172h1.317a3.5,3.5,0,0,0-.145,1V30h2.344V22.559a1.172,1.172,0,0,1,.682-1.063,3.49,3.49,0,0,0,.4-.1c.03,0,.059,0,.089,0v-.026A3.521,3.521,0,0,0,30,18.047V11.66A3.519,3.519,0,0,0,26.5,8.145ZM12.07,11.66a1.173,1.173,0,0,1,1.172-1.172h3.516A1.173,1.173,0,0,1,17.93,11.66v2.7H12.07ZM15,7.031a3.516,3.516,0,1,0-3.516-3.516A3.519,3.519,0,0,0,15,7.031Zm0-4.687a1.172,1.172,0,1,1-1.172,1.172A1.173,1.173,0,0,1,15,2.344Z" fill="#bac5e9"/>
    </g>
    <line id="Path-7" x2="35.46" transform="translate(14.867 48)" fill="none" stroke="#bac5e9" stroke-linecap="round" stroke-width="2"/>
  </g>
</svg>
