<svg xmlns="http://www.w3.org/2000/svg" width="16" height="15" viewBox="0 0 16 15">
  <g id="Filter" transform="translate(0 -1)">
    <path id="Path_40" data-name="Path 40" d="M14,3.5A2.5,2.5,0,1,1,11.5,1,2.5,2.5,0,0,1,14,3.5ZM11.5,5A1.5,1.5,0,1,0,10,3.5,1.5,1.5,0,0,0,11.5,5ZM7,8.5A2.5,2.5,0,1,1,4.5,6,2.5,2.5,0,0,1,7,8.5ZM4.5,10A1.5,1.5,0,1,0,3,8.5,1.5,1.5,0,0,0,4.5,10ZM14,13.5A2.5,2.5,0,1,1,11.5,11,2.5,2.5,0,0,1,14,13.5ZM11.5,15A1.5,1.5,0,1,0,10,13.5,1.5,1.5,0,0,0,11.5,15Z" fill-rule="evenodd"/>
    <path id="Path_41" data-name="Path 41" d="M9.5,4H0V3H9.5ZM16,4H13.5V3H16ZM9.5,14H0V13H9.5ZM16,14H13.5V13H16ZM6.5,9H16V8H6.5ZM0,9H2.5V8H0Z" fill-rule="evenodd"/>
  </g>
</svg>
