<svg xmlns="http://www.w3.org/2000/svg" width="14.036" height="14.036" viewBox="0 0 14.036 14.036">
  <g id="Full-Screen" transform="translate(-0.964 -1)">
    <path id="Path_75" data-name="Path 75" d="M1.464,10.536a.5.5,0,0,1,.5.5v3h3a.5.5,0,1,1,0,1h-3.5a.5.5,0,0,1-.5-.5v-3.5a.5.5,0,0,1,.5-.5Z" fill="#222" fill-rule="evenodd"/>
    <path id="Path_76" data-name="Path 76" d="M5.964,10a.5.5,0,0,1,0,.707L1.818,14.854a.5.5,0,1,1-.707-.708L5.257,10a.5.5,0,0,1,.707,0Zm8.854-8.854a.5.5,0,0,1,0,.708L10.672,6a.5.5,0,0,1-.708-.707l4.147-4.147a.5.5,0,0,1,.707,0Z" fill="#222" fill-rule="evenodd"/>
    <path id="Path_77" data-name="Path 77" d="M10.5,1.5A.5.5,0,0,1,11,1h3.5a.5.5,0,0,1,.5.5V5a.5.5,0,0,1-1,0V2H11A.5.5,0,0,1,10.5,1.5Zm4,9a.5.5,0,0,0-.5.5v3H11a.5.5,0,0,0,0,1h3.5a.5.5,0,0,0,.5-.5V11A.5.5,0,0,0,14.5,10.5Z" fill="#222" fill-rule="evenodd"/>
    <path id="Path_78" data-name="Path 78" d="M10,9.964a.5.5,0,0,0,0,.708l4.146,4.146a.5.5,0,1,0,.708-.707L10.707,9.964a.5.5,0,0,0-.707,0ZM1.182,1.146a.5.5,0,0,0,0,.708L5.328,6a.5.5,0,0,0,.708-.707L1.889,1.146a.5.5,0,0,0-.707,0Z" fill="#222" fill-rule="evenodd"/>
    <path id="Path_79" data-name="Path 79" d="M5.5,1.5A.5.5,0,0,0,5,1H1.5a.5.5,0,0,0-.5.5V5A.5.5,0,0,0,2,5V2H5A.5.5,0,0,0,5.5,1.5Z" fill="#222" fill-rule="evenodd"/>
  </g>
</svg>
