<svg xmlns="http://www.w3.org/2000/svg" width="22.552" height="21.015" viewBox="0 0 22.552 21.015">
  <g id="Groups" transform="translate(-1.417 -3.529)">
    <path id="layer2" d="M27.4,6.959a3.211,3.211,0,0,1,3.217-2.645s5.719-1.823,5.719,4c0,4.9,1.108,5.433,2.288,6.612a20.23,20.23,0,0,1-4.575.536v.572c0,.572-.107,1.716,2.752,2.288a3.305,3.305,0,0,1,2.967,2.859H32.261" transform="translate(-16.321)" fill="none" stroke="#202020" stroke-miterlimit="10" stroke-width="1"/>
    <path id="layer1" d="M14.9,26.1c-2.859-.393-2.859-1.43-2.859-2v-.322a5.218,5.218,0,0,0,1.5-2.5c.858,0,1.072-1.823,1.072-2.073s-.071-1.287-.465-1.394c1.43-5-2.859-7.149-6.577-4.575-1.573,0-2.073,2.288-1.5,4.575-.393,0-.465,1.072-.465,1.358s.214,2.073,1.072,2.073a5.575,5.575,0,0,0,1.751,2.5V24.1c0,.572-.214,1.644-3.11,2A3.863,3.863,0,0,0,2,29.246H17.727A3.165,3.165,0,0,0,14.9,26.1Z" transform="translate(0 -5.202)" fill="none" stroke="#202020" stroke-miterlimit="10" stroke-width="1"/>
  </g>
</svg>
