<svg xmlns="http://www.w3.org/2000/svg" width="17.852" height="15.254" viewBox="0 0 17.852 15.254">
  <path id="ID" d="M2.42,9.731V9.523a1.846,1.846,0,0,0,1.909-2.04V5.192c0-1.395.5-1.961,1.727-1.961H6.4V2H5.925C3.869,2,2.9,2.968,2.9,5V6.942C2.9,8.337,2.42,8.8,1,8.8v1.656c1.42,0,1.9.462,1.9,1.857v1.943c0,2.031.968,3,3.025,3H6.4V16.025H6.056c-1.229,0-1.727-.566-1.727-1.961V11.771A1.847,1.847,0,0,0,2.42,9.731Zm15.011-.208v.208a1.847,1.847,0,0,0-1.909,2.04v2.293c0,1.395-.5,1.961-1.727,1.961h-.348v1.229h.479c2.057,0,3.025-.968,3.025-3V12.312c0-1.395.479-1.857,1.9-1.857V8.8c-1.42,0-1.9-.462-1.9-1.857V5c0-2.031-.969-3-3.025-3h-.479V3.229H13.8c1.229,0,1.727.566,1.727,1.961V7.483A1.847,1.847,0,0,0,17.431,9.523Z" transform="translate(-1 -2)" fill="#2c3550"/>
</svg>
