<svg xmlns="http://www.w3.org/2000/svg" width="19.623" height="19.12" viewBox="0 0 19.623 19.12">
  <path id="Internet" d="M16.023,13.368h4.5c.029-.32.058-.64.058-.96a8.328,8.328,0,0,0-1.133-4.215c.755-1.978.726-3.664-.29-4.653-.958-.931-3.484-.785-6.359.5a4.7,4.7,0,0,0-.639-.029,8.379,8.379,0,0,0-8.129,6.367A11.988,11.988,0,0,1,8.3,6.795L7.08,8.016C2.493,12.611,1.04,18.6,2.609,20.144c1.19,1.192,3.31.989,5.778-.233a8.42,8.42,0,0,0,11.76-4.8h-4.56a3.688,3.688,0,0,1-6.5,0,3.617,3.617,0,0,1-.435-1.745Zm-7.375-2.21a3.548,3.548,0,0,1,7.084,0ZM19.13,4.5c.639.64.639,1.832.087,3.315a8.619,8.619,0,0,0-3.92-3.2C17.01,3.857,18.433,3.77,19.13,4.5ZM3.771,19.853c-.813-.814-.581-2.53.494-4.6A8.731,8.731,0,0,0,7.835,19.65C6.035,20.464,4.526,20.61,3.771,19.853Z" transform="translate(-1.459 -2.351)" fill="none" stroke="#202020" stroke-linecap="round" stroke-miterlimit="10" stroke-width="1"/>
</svg>
