<svg xmlns="http://www.w3.org/2000/svg" width="18.009" height="18" viewBox="0 0 18.009 18">
  <g id="Member" transform="translate(-1.49 -2)">
    <path id="layer2" d="M27.448,42.836a1.218,1.218,0,0,1-.485-1.2V40.5m-4.533.283v.85a1.2,1.2,0,0,1-.622,1.323" transform="translate(-14.198 -27.233)" fill="none" stroke="#202020" stroke-miterlimit="10" stroke-width="1"/>
    <path id="layer2-2" data-name="layer2" d="M20.689,13.833a4.756,4.756,0,0,0,2.031-2.872c.857-.01,1.2-.83,1.2-1.965,0-.565,0-1.4-.85-1.4V7.033m-8.217,0V7.6c-.567,0-.85.848-.85,1.413C14,10.15,14.4,11,15.26,11h0a4.31,4.31,0,0,0,2.032,2.833m5.778-6.8V6.467A3.694,3.694,0,0,0,19.1,2.5c-1.878,0-4.25,1-4.25,3.943v.59c3.4,0,3.683-2.267,5.95-2.267C22.916,4.767,23.07,7.033,23.07,7.033Z" transform="translate(-8.604)" fill="none" stroke="#202020" stroke-miterlimit="10" stroke-width="1"/>
    <path id="layer1" d="M5.4,49.525C1.826,50.092,2,52.642,2,52.642h8.5L7.611,48.865A6.288,6.288,0,0,1,5.4,49.525Zm10.2,0a5.528,5.528,0,0,1-2.349-.781l-2.751,3.9H19s0-2.55-3.4-3.117Z" transform="translate(0 -33.142)" fill="none" stroke="#202020" stroke-miterlimit="10" stroke-width="1"/>
  </g>
</svg>
