<svg xmlns="http://www.w3.org/2000/svg" width="27.297" height="18.594" viewBox="0 0 27.297 18.594">
  <g id="New-Call" transform="translate(-352 -878)">
    <path id="Path_124" data-name="Path 124" d="M2.267.98a1.636,1.636,0,0,1,2.448.152L6.4,3.294a1.632,1.632,0,0,1,.3,1.4L6.179,6.747a.636.636,0,0,0,.167.6l2.3,2.3a.636.636,0,0,0,.6.167l2.052-.513a1.636,1.636,0,0,1,1.4.3l2.162,1.681a1.636,1.636,0,0,1,.153,2.448l-.97.97a2.6,2.6,0,0,1-2.7.658,17.47,17.47,0,0,1-6.571-4.144A17.47,17.47,0,0,1,.639,4.646a2.607,2.607,0,0,1,.658-2.7l.97-.969Z" transform="translate(351.5 877.499)" fill-rule="evenodd"/>
    <g id="close" transform="translate(370 882) rotate(45)">
      <g id="Path_72" data-name="Path 72">
        <path d="M 6.249290466308594 8.904945373535156 L 5.54218053817749 8.197845458984375 L 3.745357513427734 6.401015758514404 L 1.948520302772522 8.197845458984375 L 1.241410374641418 8.904945373535156 L 0.5343003869056702 8.197845458984375 L -0.7071296572685242 6.95641565322876 L -1.41422963142395 6.249305725097656 L -0.7071296572685242 5.542195796966553 L 1.089712500572205 3.74535346031189 L -0.7071196436882019 1.948535561561584 L -1.414239645004272 1.241425633430481 L -0.7071296572685242 0.5343156456947327 L 0.5343003869056702 -0.7071143984794617 L 1.241410374641418 -1.414214372634888 L 1.948520302772522 -0.7071143984794617 L 3.745357513427734 1.089715600013733 L 5.54218053817749 -0.7071143984794617 L 6.249290466308594 -1.414214372634888 L 6.956400394439697 -0.7071143984794617 L 8.197830200195312 0.5343156456947327 L 8.904940605163574 1.241425633430481 L 8.197820663452148 1.948535561561584 L 6.400988101959229 3.74535346031189 L 8.197830200195312 5.542195796966553 L 8.904930114746094 6.249305725097656 L 8.197830200195312 6.95641565322876 L 6.956400394439697 8.197845458984375 L 6.249290466308594 8.904945373535156 Z" stroke="none"/>
        <path d="M 1.241410255432129 -4.291534423828125e-06 L -1.955032348632812e-05 1.241425514221191 L 2.503930568695068 3.745355606079102 L -1.955032348632812e-05 6.249305725097656 L 1.241410255432129 7.490735530853271 L 3.745360374450684 4.986795425415039 L 6.249290466308594 7.490735530853271 L 7.490720272064209 6.249305725097656 L 4.986770629882812 3.745355606079102 L 7.490720272064209 1.241425514221191 L 6.249290466308594 -4.291534423828125e-06 L 3.745360374450684 2.503935813903809 L 1.241410255432129 -4.291534423828125e-06 M 6.249290466308594 -2.828433990478516 L 10.31915092468262 1.241435527801514 L 7.815200805664062 3.745366334915161 L 10.31915092468262 6.249305725097656 L 6.249290466308594 10.31916618347168 L 3.745354652404785 7.815225601196289 L 1.241410255432129 10.3191556930542 L -2.828449249267578 6.249305725097656 L -0.3245000839233398 3.745366334915161 L -2.828449249267578 1.241435527801514 L 1.241410255432129 -2.828424453735352 L 3.745354652404785 -0.3244943618774414 L 6.249290466308594 -2.828433990478516 Z" stroke="none" fill="#fff"/>
      </g>
    </g>
  </g>
</svg>
