<svg xmlns="http://www.w3.org/2000/svg" width="29.297" height="19.297" viewBox="0 0 29.297 19.297">
  <g id="New-Group" transform="translate(-350 -837)">
    <path id="Path_122" data-name="Path 122" d="M8.75,17A1.224,1.224,0,0,1,7.5,15.75c0-1.25,1.25-5,6.25-5S20,14.5,20,15.75A1.224,1.224,0,0,1,18.75,17Zm5-7.5A3.75,3.75,0,1,0,10,5.75,3.75,3.75,0,0,0,13.75,9.5ZM6.52,17a2.8,2.8,0,0,1-.27-1.25A5.966,5.966,0,0,1,8.67,11.1a7.906,7.906,0,0,0-2.42-.35c-5,0-6.25,3.75-6.25,5A1.224,1.224,0,0,0,1.25,17Zm-.9-7.5A3.125,3.125,0,1,0,2.5,6.375,3.125,3.125,0,0,0,5.625,9.5Z" transform="translate(350 835)" fill-rule="evenodd"/>
    <g id="close" transform="translate(370 841.703) rotate(45)">
      <g id="Path_72" data-name="Path 72">
        <path d="M 6.249290466308594 8.904945373535156 L 5.54218053817749 8.197845458984375 L 3.745357513427734 6.401015758514404 L 1.948520302772522 8.197845458984375 L 1.241410374641418 8.904945373535156 L 0.5343003869056702 8.197845458984375 L -0.7071296572685242 6.95641565322876 L -1.41422963142395 6.249305725097656 L -0.7071296572685242 5.542195796966553 L 1.089712500572205 3.74535346031189 L -0.7071196436882019 1.948535561561584 L -1.414239645004272 1.241425633430481 L -0.7071296572685242 0.5343156456947327 L 0.5343003869056702 -0.7071143984794617 L 1.241410374641418 -1.414214372634888 L 1.948520302772522 -0.7071143984794617 L 3.745357513427734 1.089715600013733 L 5.54218053817749 -0.7071143984794617 L 6.249290466308594 -1.414214372634888 L 6.956400394439697 -0.7071143984794617 L 8.197830200195312 0.5343156456947327 L 8.904940605163574 1.241425633430481 L 8.197820663452148 1.948535561561584 L 6.400988101959229 3.74535346031189 L 8.197830200195312 5.542195796966553 L 8.904930114746094 6.249305725097656 L 8.197830200195312 6.95641565322876 L 6.956400394439697 8.197845458984375 L 6.249290466308594 8.904945373535156 Z" stroke="none"/>
        <path d="M 1.241410255432129 -4.291534423828125e-06 L -1.955032348632812e-05 1.241425514221191 L 2.503930568695068 3.745355606079102 L -1.955032348632812e-05 6.249305725097656 L 1.241410255432129 7.490735530853271 L 3.745360374450684 4.986795425415039 L 6.249290466308594 7.490735530853271 L 7.490720272064209 6.249305725097656 L 4.986770629882812 3.745355606079102 L 7.490720272064209 1.241425514221191 L 6.249290466308594 -4.291534423828125e-06 L 3.745360374450684 2.503935813903809 L 1.241410255432129 -4.291534423828125e-06 M 6.249290466308594 -2.828433990478516 L 10.31915092468262 1.241435527801514 L 7.815200805664062 3.745366334915161 L 10.31915092468262 6.249305725097656 L 6.249290466308594 10.31916618347168 L 3.745354652404785 7.815225601196289 L 1.241410255432129 10.3191556930542 L -2.828449249267578 6.249305725097656 L -0.3245000839233398 3.745366334915161 L -2.828449249267578 1.241435527801514 L 1.241410255432129 -2.828424453735352 L 3.745354652404785 -0.3244943618774414 L 6.249290466308594 -2.828433990478516 Z" stroke="none" fill="#fff"/>
      </g>
    </g>
  </g>
</svg>
