<svg xmlns="http://www.w3.org/2000/svg" width="16" height="12.999" viewBox="0 0 16 12.999">
  <g id="Project" transform="translate(0 -1.5)">
    <path id="Path_28" data-name="Path 28" d="M3.188,8,.264,9.559a.5.5,0,0,0,0,.882l7.5,4a.5.5,0,0,0,.47,0l7.5-4a.5.5,0,0,0,0-.882L12.813,8l-1.063.567L14.438,10,8,13.433,1.562,10,4.25,8.567,3.187,8Z" fill-rule="evenodd"/>
    <path id="Path_29" data-name="Path 29" d="M7.765,1.559a.5.5,0,0,1,.47,0l7.5,4a.5.5,0,0,1,0,.882l-7.5,4a.5.5,0,0,1-.47,0l-7.5-4a.5.5,0,0,1,0-.882ZM1.563,6,8,9.433,14.438,6,8,2.567,1.562,6Z" fill-rule="evenodd"/>
  </g>
</svg>
