<svg xmlns="http://www.w3.org/2000/svg" width="50" height="50" viewBox="0 0 50 50">
  <g id="Recieve-Call" transform="translate(-845 -744)">
    <rect id="Rectangle_100" data-name="Rectangle 100" width="50" height="50" rx="25" transform="translate(845 744)" fill="#3fcc35"/>
    <path id="layer2" d="M19.084,15.546,15.962,13.5a1.441,1.441,0,0,0-1.952.39c-.691.871-1.591,2.312-4.864-.961S7.284,8.761,8.155,8.04a1.441,1.441,0,0,0,.39-1.952L6.5,2.966c-.27-.39-.631-1.021-1.471-.9A4.1,4.1,0,0,0,2,6.119c0,2.7,2.132,6.005,5.044,8.917s6.215,5.014,8.887,5.014a4.353,4.353,0,0,0,4.053-3C20.075,16.447,19.475,15.817,19.084,15.546Z" transform="translate(859 757.95)" fill="#fff"/>
  </g>
</svg>
