<svg xmlns="http://www.w3.org/2000/svg" width="20" height="20" viewBox="0 0 20 20">
  <g id="Right-Tick" transform="translate(-500 -206)">
    <g id="Group_9074" data-name="Group 9074" transform="translate(115 -179)">
      <g id="Rectangle_1505" data-name="Rectangle 1505" transform="translate(385 385)" fill="#fff" stroke="#1b1515" stroke-width="1">
        <rect width="20" height="20" rx="10" stroke="none"/>
        <rect x="0.5" y="0.5" width="19" height="19" rx="9.5" fill="none"/>
      </g>
    </g>
    <path id="check" d="M3.945,8.252a.526.526,0,0,1-.744,0L.231,5.281a.789.789,0,0,1,0-1.116L.6,3.794a.789.789,0,0,1,1.116,0L3.573,5.648,8.584.637A.789.789,0,0,1,9.7.637l.372.372a.789.789,0,0,1,0,1.116Zm0,0" transform="translate(505 211.594)" fill="#1b1515"/>
  </g>
</svg>
