<svg xmlns="http://www.w3.org/2000/svg" width="20.043" height="15.033" viewBox="0 0 20.043 15.033">
  <path id="Rooms" d="M3.132,16.406a.626.626,0,0,1,.626-.626H16.285a.626.626,0,1,1,0,1.253H3.758A.626.626,0,0,1,3.132,16.406ZM17.527,3.253H2.505a1.308,1.308,0,0,0-.754.182.95.95,0,0,0-.318.378,1.829,1.829,0,0,0-.18.705v7.5a1.308,1.308,0,0,0,.182.754.947.947,0,0,0,.378.318,1.834,1.834,0,0,0,.674.179H17.538a1.308,1.308,0,0,0,.754-.182.95.95,0,0,0,.318-.378,1.834,1.834,0,0,0,.179-.674V4.505a1.308,1.308,0,0,0-.182-.754.948.948,0,0,0-.378-.318,1.829,1.829,0,0,0-.705-.18ZM17.538,2H2.505A2.454,2.454,0,0,0,0,4.505v7.516a2.454,2.454,0,0,0,2.505,2.505H17.538a2.454,2.454,0,0,0,2.505-2.505V4.505A2.454,2.454,0,0,0,17.538,2Z" transform="translate(0 -2)" fill-rule="evenodd"/>
</svg>
