<svg xmlns="http://www.w3.org/2000/svg" width="104" height="27.393" viewBox="0 0 104 27.393">
  <g id="Slider" transform="translate(-368 -941)">
    <g id="Group_5" data-name="Group 5" transform="translate(408 941)">
      <g id="Group_1" data-name="Group 1" transform="translate(0)">
        <path id="Path_1" data-name="Path 1" d="M241.925,329.273a14.134,14.134,0,0,1-2.007-.144,13.8,13.8,0,0,1-11.571-12,13.582,13.582,0,0,1,3.407-10.692,13.68,13.68,0,0,1,19.211-1.172,2.787,2.787,0,0,1,.969,2.117,2.852,2.852,0,0,1-1.03,2.143l-.033.026a2.953,2.953,0,0,1-3.826-.022,7.883,7.883,0,0,0-5.086-1.867.9.9,0,1,1,0-1.8,9.687,9.687,0,0,1,6.249,2.294,1.156,1.156,0,0,0,1.5.022l.033-.026a1.04,1.04,0,0,0,.391-.783.982.982,0,0,0-.356-.748,11.9,11.9,0,1,0-.02,17.93,1.04,1.04,0,0,0-.011-1.55l-.031-.026a1.112,1.112,0,0,0-1.469-.007,9.748,9.748,0,0,1-3.8,2,.9.9,0,1,1-.461-1.743,7.937,7.937,0,0,0,3.1-1.629,2.921,2.921,0,0,1,3.8,0l.028.024a2.839,2.839,0,0,1,.035,4.283A13.706,13.706,0,0,1,241.925,329.273Z" transform="translate(-228.259 -301.88)" fill="#2c3550"/>
      </g>
      <g id="Group_2" data-name="Group 2" transform="translate(9.32 4.663)">
        <path id="Path_2" data-name="Path 2" d="M271.782,325.045a.9.9,0,0,1-.359-1.727l.1-.044a.9.9,0,1,1,.691,1.662l-.079.033A.865.865,0,0,1,271.782,325.045Z" transform="translate(-270.882 -323.204)" fill="#6f66ff"/>
      </g>
      <g id="Group_3" data-name="Group 3" transform="translate(3.986 6.615)">
        <path id="Path_3" data-name="Path 3" d="M251.975,347.82a.915.915,0,0,1-.44-.114,9.808,9.808,0,0,1-5.04-8.208,9.626,9.626,0,0,1,2.8-7.1.9.9,0,1,1,1.281,1.264,7.85,7.85,0,0,0-2.278,5.781,8,8,0,0,0,4.119,6.689.9.9,0,0,1-.439,1.686Z" transform="translate(-246.491 -332.132)" fill="#5bbdf4"/>
      </g>
      <g id="Group_4" data-name="Group 4" transform="translate(8.49 8.49)">
        <path id="Path_4" data-name="Path 4" d="M272.216,340.708a5.275,5.275,0,0,0-5.121,4.887,5.22,5.22,0,0,0,4.13,5.423v1.472a.443.443,0,0,0,.73.337l3.271-2.6a5.209,5.209,0,0,0-3.011-9.516Zm2.023,8-2.655,2.079v-1.214a.448.448,0,0,0-.328-.424,3.463,3.463,0,1,1,2.982-.442Z" transform="translate(-267.086 -340.707)" fill="#6f66ff"/>
      </g>
    </g>
    <rect id="Rectangle_42" data-name="Rectangle 42" width="10" height="10" rx="5" transform="translate(388 950)" fill="#bac5e9"/>
    <g id="Rectangle_45" data-name="Rectangle 45" transform="translate(368 950)" fill="#fff" stroke="#bac5e9" stroke-width="1">
      <rect width="10" height="10" rx="5" stroke="none"/>
      <rect x="0.5" y="0.5" width="9" height="9" rx="4.5" fill="none"/>
    </g>
    <rect id="Rectangle_43" data-name="Rectangle 43" width="10" height="10" rx="5" transform="translate(442 950)" fill="#bac5e9"/>
    <g id="Rectangle_44" data-name="Rectangle 44" transform="translate(462 950)" fill="#fff" stroke="#bac5e9" stroke-width="1">
      <rect width="10" height="10" rx="5" stroke="none"/>
      <rect x="0.5" y="0.5" width="9" height="9" rx="4.5" fill="none"/>
    </g>
  </g>
</svg>
