<svg id="Video-Call" xmlns="http://www.w3.org/2000/svg" width="17.727" height="13" viewBox="0 0 17.727 13">
  <path id="Path_18" data-name="Path 18" d="M3.061,3.682A1.378,1.378,0,0,0,1.682,5.061v7.878a1.378,1.378,0,0,0,1.379,1.379h7.878a1.378,1.378,0,0,0,1.379-1.379V5.061a1.378,1.378,0,0,0-1.379-1.379H3.061ZM.5,5.061A2.561,2.561,0,0,1,3.061,2.5h7.878A2.561,2.561,0,0,1,13.5,5.061v7.878A2.561,2.561,0,0,1,10.939,15.5H3.061A2.561,2.561,0,0,1,.5,12.939Z" transform="translate(-0.5 -2.5)" fill-rule="evenodd"/>
  <path id="Path_19" data-name="Path 19" d="M11.341,6.132l3.271-1.9a.376.376,0,0,1,.57.311v8.727a.376.376,0,0,1-.57.312l-3.27-1.9-.593,1.022,3.27,1.9a1.558,1.558,0,0,0,2.345-1.334V4.546a1.558,1.558,0,0,0-2.345-1.333l-3.269,1.9.593,1.022Z" transform="translate(1.363 -2.409)" fill-rule="evenodd"/>
</svg>
